<svg xmlns="http://www.w3.org/2000/svg" xmlns:xlink="http://www.w3.org/1999/xlink" viewBox="0 0 108.44 27.92"><defs><style>.cls-1{isolation:isolate;}.cls-2{font-size:21.14px;fill:#fff;font-family:DINAlternate-Bold, DIN Alternate;font-weight:700;letter-spacing:0.02em;}.cls-3{fill:url(#未命名的渐变_120);}.cls-4{opacity:0.53;}.cls-4,.cls-5,.cls-6{mix-blend-mode:multiply;}.cls-5{fill:url(#未命名的渐变_158);}.cls-6{fill:url(#未命名的渐变_158-2);}.cls-7{fill:url(#未命名的渐变_128);}.cls-8{fill:url(#未命名的渐变_128-2);}</style><linearGradient id="未命名的渐变_120" x1="7.88" y1="21.57" x2="28.94" y2="-0.08" gradientUnits="userSpaceOnUse"><stop offset="0" stop-color="#00a0e9"/><stop offset="0.23" stop-color="#0ca5e7"/><stop offset="0.63" stop-color="#2db2e0"/><stop offset="1" stop-color="#4fc0d9"/></linearGradient><linearGradient id="未命名的渐变_158" x1="11.9" y1="15.21" x2="11.9" y2="9.66" gradientUnits="userSpaceOnUse"><stop offset="0" stop-color="#fff"/><stop offset="1" stop-color="#231815"/></linearGradient><linearGradient id="未命名的渐变_158-2" x1="11.9" y1="9.07" x2="11.9" y2="2.52" gradientTransform="matrix(1, 0, 0, -0.94, 0, 11.15)" xlink:href="#未命名的渐变_158"/><linearGradient id="未命名的渐变_128" y1="5.1" x2="29.81" y2="5.1" gradientUnits="userSpaceOnUse"><stop offset="0" stop-color="#c86220"/><stop offset="1" stop-color="#cb371b"/></linearGradient><linearGradient id="未命名的渐变_128-2" x1="17.63" y1="13.77" x2="20.47" y2="13.77" xlink:href="#未命名的渐变_128"/></defs><title>资源 9</title><g class="cls-1"><g id="图层_2" data-name="图层 2"><g id="图层_1-2" data-name="图层 1"><text class="cls-2" transform="translate(40.3 22.12) scale(1.04 1)">TMSys.</text><path class="cls-3" d="M28.5,0H11.9A1.3,1.3,0,0,0,11,.38a1.29,1.29,0,0,0-.39.92V25.94a1.6,1.6,0,0,0,1.6,1.6H19a1.29,1.29,0,0,0,.92-.39,1.26,1.26,0,0,0,.39-.91V19.09a1.31,1.31,0,0,0-2.62,0v5.85H13.21V2.6H28.5a1.3,1.3,0,1,0,0-2.6Z"/><g class="cls-4"><path class="cls-5" d="M10.59,15.21h2.62V10.12a17.5,17.5,0,0,1-2.62-.46Z"/></g><g class="cls-4"><path class="cls-6" d="M10.59,2.63h2.62V8.35a18.84,18.84,0,0,0-2.62.43Z"/></g><path class="cls-7" d="M28.5,0a1.3,1.3,0,0,0-1.14.67A14.54,14.54,0,0,1,14.91,7.6,14.52,14.52,0,0,1,2.43.62,1.32,1.32,0,0,0,.63.19,1.29,1.29,0,0,0,.19,2,17.15,17.15,0,0,0,14.91,10.2,17.15,17.15,0,0,0,29.62,2a1.34,1.34,0,0,0,.19-.68h0A1.3,1.3,0,0,0,28.5,0Z"/><rect class="cls-8" x="17.63" y="12.35" width="2.84" height="2.84" rx="1.42" ry="1.42"/></g></g></g></svg>